<?xml version="1.0" standalone="no"?>
<!DOCTYPE svg PUBLIC "-//W3C//DTD SVG 1.1//EN" "http://www.w3.org/Graphics/SVG/1.1/DTD/svg11.dtd" >
<svg xmlns="http://www.w3.org/2000/svg">
<metadata>
This is a custom SVG font generated by IcoMoon.
<iconset grid="20"></iconset>
</metadata>
<defs>
<font id="GettyIcons" horiz-adv-x="640" >
<font-face units-per-em="640" ascent="608" descent="-32" />
<missing-glyph horiz-adv-x="640" />
<glyph class="hidden" unicode="&#xf000;" d="M0,608L 640 -32L0 -32 z" horiz-adv-x="0" />
<glyph unicode="&#xe007;" d="M 320.76,608C 320.76,608, 120,369.58, 120,167.54C 120-34.52, 319.24-32, 319.24-32
			S 520-29.5, 520,168.78S 320.76,608, 320.76,608z M 320,48c-66.26,0-120,53.74-120,120c0,42.42, 22.28,79.26, 55.54,100.52
			C 246,255.78, 240,237.92, 240,218c0-4.14, 0.38-8.14, 0.86-12.080C 240.68,203.24, 240,200.72, 240,198c0-5.14, 0.84-10.060, 1.52-15
			C 240.58,178.14, 240,173.14, 240,168c0-44.18, 35.82-80, 80-80c 5.14,0, 10.14,0.58, 15,1.5C 339.96,88.82, 344.86,88, 350,88
			c 2.72,0, 5.24,0.66, 7.9,0.88C 361.84,88.38, 365.86,88, 370,88c 19.92,0, 37.78,6, 50.52,15.52C 399.26,70.28, 362.42,48, 320,48z
			"  />
<glyph unicode="&#xe000;" d="M 322.88,578.919c-139.966,0-187.064-123.19-187.064-179.336c0-51.617, 22.284-93.741, 40.242-127.535l 4.092-7.787
		c 13.663-25.988, 15.68-85.692, 15.263-106.502l-0.233-13.692l-0.087,0 l0-12.587 l 2.327-4.664l 247.981,26.589l-0.359,6.264l 0.058,0 l-0.175,15.137
		c-0.204,16.136, 2.288,63.632, 15.758,89.522c 2.327,4.538, 4.79,9.096, 7.292,13.721c 17.61,32.727, 37.518,69.779, 37.518,121.542
		C 505.522,462.119, 452.015,578.919, 322.88,578.919z M 439.438,293.401c-2.599-4.81-5.13-9.522-7.573-14.167
		c-14.245-27.413-18.88-76.887-19.85-98.686l-184.107-15.457c-0.708,26.764-0.863,83.888-19.035,114.221l-4.179,7.884
		c-16.999,32.242-36.393,68.79-36.393,112.349c0,46.002, 38.904,146.841, 154.802,146.841c 114.444,0, 149.954-107.646, 149.954-146.841
		C 473.096,355.995, 455.971,324.189, 439.438,293.401z M 224.446,62.458l 195.801,21.896l 11.646,34.521l-220.49-25.668L 224.446,62.458z M 251.956-2.822
		l 143.127,15.884l 12.102,34.482L 238.448,27.976L 251.956-2.822z M 227.724,396.684l 181.828,0 l0-31.68 L 227.724,365.004 L 227.724,396.684 z"  />
<glyph unicode="&#xe001;" d="M 334.691,472.145l-31.321,0 l0-75.355 l-75.326,0 l0-31.292 l 75.326,0 l0-75.384 l 31.321,0 l0,75.384 l 75.394,0 l0,31.292 l-75.394,0 L 334.691,472.145 z M 322.87,578.919
		c-139.947,0-187.055-123.19-187.055-179.336c0-51.607, 22.284-93.741, 40.242-127.544l 4.102-7.796c 13.644-25.978, 15.68-85.682, 15.263-106.502
		l-0.233-13.692l-0.097,0 l0-12.587 l 2.327-4.655l 247.981,26.589l-0.359,6.255l 0.058,0 l-0.175,15.137c-0.204,16.136, 2.288,63.632, 15.758,89.532
		c 2.327,4.538, 4.79,9.096, 7.292,13.721c 17.61,32.727, 37.518,69.789, 37.518,121.552C 505.522,462.119, 452.015,578.919, 322.87,578.919z
		 M 439.438,293.411c-2.599-4.8-5.13-9.522-7.573-14.177c-14.245-27.413-18.88-76.897-19.83-98.696l-184.116-15.447
		c-0.718,26.754-0.873,83.879-19.035,114.221l-4.179,7.884c-17.018,32.252-36.402,68.8-36.402,112.349c0,46.002, 38.904,146.851, 154.812,146.851
		c 114.415,0, 149.944-107.646, 149.944-146.851C 473.096,356.005, 455.971,324.189, 439.438,293.411z M 224.446,62.448l 195.821,21.905l 11.627,34.521
		l-220.48-25.668L 224.446,62.448z M 251.966-2.832l 143.098,15.884l 12.121,34.492L 238.448,27.966L 251.966-2.832z"  />
<glyph unicode="&#x22;" d="M 48.36,343c0,119.6, 97.6,216.84, 217.56,216.84s 217.56-97.28, 217.56-216.84s-97.6-216.8-217.56-216.8
	S 48.36,223.4, 48.36,343 M 0,343c0-146.12, 119.32-265, 265.96-264.92c 64.36,0, 123.52,22.88, 169.56,60.92l 171.52-171l 32.92,32.84
	l-171.32,170.84c 39.36,46.2, 63.28,106.040, 63.28,171.32c0,146.16-119.28,265-265.96,265S 0,489.080, 0,343"  />
<glyph unicode="&#x23;" d="M 542.6,533.040L 498.4,490.88c 110.96-116.24, 106.68-301.040-9.48-412.040l 42.2-44.16C 671.68,168.92, 676.84,392.48, 542.6,533.040zM 463.84,457.52l-44.080-42.32c 34.24-35.68, 52.44-82.2, 51.080-130.96c-1.32-48.16-21.56-92.92-57.080-126.040l 41.68-44.64
	c 47.56,44.4, 74.68,104.4, 76.44,169.040C 533.68,347.84, 509.52,410, 463.84,457.52zM 97.4,533.040L 141.6,490.88c-110.96-116.24-106.68-301.040, 9.52-412.040l-42.2-44.16C-31.68,168.92-36.84,392.48, 97.4,533.040zM 176.16,457.52l 44.080-42.32c-34.24-35.68-52.4-82.2-51.080-130.96c 1.32-48.16, 21.56-92.92, 57.040-126.040L 184.52,113.6
	c-47.52,44.4-74.68,104.4-76.44,169.040C 106.32,347.84, 130.48,410, 176.16,457.52zM 386.48,287.96c0-40.64-32.96-73.6-73.68-73.6l0,0c-40.64,0-73.64,32.96-73.64,73.6l0,0c0,40.72, 33,73.72, 73.64,73.72l0,0
	C 353.52,361.68, 386.48,328.68, 386.48,287.96L 386.48,287.96z"  />
<glyph unicode="&#x24;" d="M0,267.36L0,203.92L 235.28-32L 640,550.8L 640,608L 574.12,607.4L 223.56,109.56L 63.52,267.64 z"  />
<glyph unicode="&#x25;" d="M 102.64,492.88c0-16.24, 13.2-29.4, 29.48-29.4c 16.24,0, 29.36,13.2, 29.36,29.4l0,30 L 102.64,522.88 L 102.64,492.88 zM 498.84,522.88l0-30 c0-41.4-33.64-75.040-75.040-75.040c-41.44,0-75.12,33.72-75.12,75.040l0,30 L 207.2,522.88 l0-30 
			c0-41.4-33.64-75.040-75.040-75.040S 57,451.52, 57,492.88l0,30 L 3.12,522.88 l0-553.76 l 553.76,0 L 556.88,522.88 L 498.84,522.88 z M 482.8,25.88L 77.16,25.88 L 77.16,362.24 
			L 482.8,362.24 L 482.8,25.88 zM 394.28,492.88c0-16.24, 13.24-29.4, 29.48-29.4s 29.36,13.2, 29.36,29.4l0,30 l-58.88,0 L 394.24,492.88 zM 453.16,579.72c0,16.24-13.2,29.4-29.44,29.4c-16.28,0-29.4-13.2-29.4-29.4l0-56.84 l 58.88,0 L 453.2,579.72 zM 161.6,579.72c0,16.24-13.24,29.4-29.48,29.4c-16.28,0-29.36-13.2-29.36-29.4l0-56.84 L 161.6,522.88 L 161.6,579.72 zM 108.4,236.12L 197.76,236.12L 197.76,159.96L 108.4,159.96zM 231.8,236.12L 321.12,236.12L 321.12,159.96L 231.8,159.96zM 355.24,236.12L 444.6,236.12L 444.6,159.96L 355.24,159.96zM 108.4,133.72L 197.76,133.72L 197.76,57.56L 108.4,57.56zM 231.8,133.72L 321.12,133.72L 321.12,57.56L 231.8,57.56zM 355.24,133.72L 444.6,133.72L 444.6,57.56L 355.24,57.56z"  />
<glyph unicode="&#x26;" d="M 195.44,608L 195.44-32L 574.36,279.56 z"  />
<glyph unicode="&#x27;" d="M0,609.080L 640,609.080L 640-30.92L0-30.92zM 243.12,461L 243.12,117.2L 446.68,284.56 	z"  />
<glyph unicode="&#x28;" d="M 45.51,443.45L 5.080,403.020L 320.22,87.83L 633.2,403.7L 595.93,440.97L 320.13,166.31 z"  />
<glyph unicode="&#x2a;" d="M 445.6,220.6c0-93.4-81-178.2-180.64-178.2s-180.68,82.28-180.68,181.88c0,99.56, 80.96,181.2, 180.44,181.28L 264.68,276.2
	l 212.52,165.96L 264.88,608L 264.8,480.52C 124,480.48, 9.92,366.32, 9.92,225.52C 9.92,84.68, 124.12-32, 264.96-32S 520,73.84, 520,220.6L 445.6,220.6 z" horiz-adv-x="520"  />
<glyph unicode="&#x2b;" d="M 335.334,318.822c 1.024,36.659, 21.146,58.163, 51.405,58.163c 30.797,0, 50.739-21.478, 51.405-58.163L 335.334,318.822 z M 496.077,275.968l0,25.805 
			c0,63.59-38.733,122.214-107.981,122.035c-72.32,0-115.533-52.838-115.533-137.37c0-84.378, 43.238-137.574, 112.026-137.574
			c 51.405,0, 87.142,16.307, 111.59,54.067l-45.875,28.595c-15.872-18.458-29.696-31.309-60.16-31.309c-29.747,0-54.784,21.504-55.45,76.595L 496.077,275.968 zM 869.811,110.259c 9.702-1.715, 17.382-1.715, 26.573-1.715c 22.502,0, 33.997,6.349, 41.882,21.146c 6.349,13.082, 10.394,20.403, 10.394,31.13
			c0,9.702-5.12,21.146-8.115,31.309l-71.066,226.97l 63.59,0 l 43.418-163.738l 1.050,0 l 45.44,163.738l 63.334,0 l-84.378-266.214
			c-28.058-75.699-50.739-96.486-102.579-96.486c-15.77,0-22.989,1.075-30.669,1.715L 869.786,110.259 zM 541.363,209.946c0-37.811, 18.458-60.902, 65.536-60.902c 17.357,0, 32.64,1.715, 50.022,4.070l0,52.147 
			c-9.19-1.715-19.2-5.094-28.621-5.094c-15.872,0-22.989,4.096-22.989,18.458L 604.442,367.462 l 118.63,0 l0-158.362 c0-37.811, 18.458-60.902, 65.536-60.902
			c 17.357,0, 33.254,1.715, 50.074,4.070l0,52.147 c-9.242-1.715-19.2-5.094-28.621-5.094c-15.872,0-22.912,4.096-22.912,18.458L 786.253,367.462 l 52.096,0 
			L 837.837,418.56 l-52.096,0 L 786.253,506.726 l-63.181,0 l0-87.808 l-118.63,0 L 604.416,506.726 l-63.104,0 L 541.312,209.946 zM 1137.357,419.302L 1168,419.302L 1168,153.574L 1137.357,153.574zM 1137.357,505.702L 1168,505.702L 1168,460.262L 1137.357,460.262zM 1234.637,153.574L 1234.637,419.302 l 30.643,0 l0-39.987 c 27.162,28.544, 47.104,45.363, 88.55,45.363c 29.594,0, 56.704-18.714, 64.41-48.256
			c 24.038,28.083, 49.536,48.256, 87.808,48.256c 46.106,0, 69.99-25.267, 69.99-72.269l0-198.886 l-30.72,0 l0,201.984 c0,29.619-16.307,44.467-45.926,44.467
			c-23.245,0-62.848-25.19-78.387-50.739l0-196.019 l-30.643,0 l0,201.984 c0,29.619-16.333,44.467-46.054,44.467c-23.245,0-62.848-25.19-78.387-50.739l0-196.019 
			L 1234.637,153.574 zM 1795.021,216.755c-26.675-27.085-62.054-43.418-90.496-43.418c-27.878,0-48.051,16.256-48.051,45.414c0,33.741, 16.333,58.214, 138.419,85.12
			L 1795.046,216.755 z M 1829.222,153.574c-3.661,17.664-4.096,34.97-4.096,48.307l0,138.931 c0,59.085-28.57,83.277-89.062,83.277
			c-43.008,0-75.699-17.203-99.174-60.288l 20.378-12.262c 19.2,30.797, 45.722,48.307, 77.645,48.307c 45.645,0, 60.902-18.458, 60.902-53.478l0-18.458 
			c-111.283-24.55-170.624-37.862-170.624-110.387c0-44.262, 31.309-69.581, 73.011-69.581c 40.73,0, 65.536,12.186, 96.845,37.299l 4.147-31.309L 1829.222,153.574 zM 2166.118,309.606c 0.973,35.942, 23.245,90.496, 77.773,90.445c 46.106-0.973, 70.323-35.942, 76.595-90.445L 2166.118,309.606 z M 2350.72,285.389
			c0,82.304-33.997,138.854-106.317,138.854c-67.379,0-109.286-55.526-109.286-137.574c0-93.875, 43.418-137.574, 113.971-137.574
			c 50.739,0, 76.621,17.715, 105.19,64.768l-25.19,13.389c-26.624-42.035-43.418-53.888-77.696-53.888c-60.314,0-85.12,52.25-85.12,112.845L 2350.72,285.389 zM 2408.986,217.907c 25.19-35.942, 48.051-45.363, 82.406-45.363c 33.792,0, 59.418,22.502, 59.418,50.79c0,77.645-156.416,33.741-156.416,128.768
			c0,50.739, 39.987,72.397, 84.403,72.397c 44.57,0, 72.73-17.203, 91.597-48.051l-23.245-16.384c-18.458,24.576-37.453,40.013-69.581,40.013
			c-29.696,0-52.762-13.824-52.762-46.106c0-65.536, 156.416-26.65, 156.416-129.51c0-48.051-44.083-75.059-92.442-75.059
			c-40.73,0-77.798,16.23-102.605,53.478L 2408.986,217.907zM 170.624,331.981c0-25.19-19.2-43.418-43.418-43.418c-27.034,0-45.875,19.2-45.875,43.418c0,24.448, 18.867,43.418, 45.875,43.418
			C 151.501,375.526, 170.624,356.454, 170.624,331.981z M 14.31,137.421C 13.005,133.376, 11.52,126.515, 12.493,118.349
			c 1.715-41.805, 46.106-61.594, 117.402-61.594c 84.608,0, 122.778,40.73, 122.778,78.387c0,106.163-173.901,48.051-173.901,90.496
			c0,15.77, 22.502,16.358, 49.459,16.358c 66.893,0, 99.917,35.942, 99.917,85.811c0,20.454-6.349,35.942-13.824,47.078
			c 9.651,6.349, 25.933,6.349, 40.73,6.349L 254.029,423.936 c-30.566,1.101-50.048-7.066-62.234-23.245c-16.282,13.824-42.88,23.245-65.536,23.245
			c-68.915,0-104.678-45.798-104.678-92.442c0-32.179, 17.357-52.557, 39.296-70.323c-11.853-3.661-41.421-22.912-41.421-48.435
			c0-33.997, 46.106-48.051, 104.832-51.43c 47.309-2.97, 70.323-14.925, 70.323-33.306c0-11.904-14.643-28.442-55.347-29.645
			c-65.997-1.715-73.011,17.715-68.915,37.965L 14.31,137.421zM 1989.094,173.44c 79.462,0, 96.768-21.478, 96.768-43.238c0-27.878-28.518-45.363-95.13-45.363c-55.040,0-80.486,17.741-80.486,43.418
			C 1910.656,151.501, 1929.37,173.44, 1989.094,173.44z M 2114.406,429.056c-21.146,0-40.243-8.115-55.475-23.245c-16.512,11.136-36.198,18.458-61.645,18.458
			c-64.205,0-104.909-37.299-104.909-95.232c0-27.878, 13.824-52.838, 38.042-69.581c-19.2-4.096-39.987-22.502-39.987-45.363
			c0-22.502, 15.795-30.566, 35.123-33.997l0-0.998 c-37.299-13.824-46.106-33.254-46.106-55.526c0-31.309, 24.474-62.848, 115.686-62.848
			c 91.11,0, 120.73,33.254, 120.73,72.269c0,43.29-33.254,68.762-112.026,68.762c-72.269,0-81.997,7.706-81.997,22.886
			c0,9.702, 7.706,19.2, 24.371,25.523c 13.261-4.403, 25.933-8.218, 42.829-8.218c 55.526,0, 102.349,27.878, 102.349,92.723
			c0,25.472-7.091,40.73-18.79,55.45c 10.65,10.701, 28.467,12.237, 42.675,12.237L 2114.406,429.056 z M 1923.379,331.802c0,40.73, 25.933,67.635, 68.787,67.635
			c 42.752,0, 68.685-21.453, 68.685-67.635c0-45.798-25.933-66.15-68.685-66.15C 1955.021,265.216, 1923.379,285.926, 1923.379,331.802zM 2701.875,454.886c0-33.51-27.878-60.902-60.902-60.902c-33.792,0-60.902,27.878-60.902,60.902c0,33.587, 27.213,60.902, 60.902,60.902
		C 2674.611,516.045, 2701.875,488.499, 2701.875,454.886z M 2691.482,454.886c0,29.491-21.811,52.813-51.072,52.813c-29.363,0-51.251-23.245-51.251-52.813
		c0-29.363, 21.888-52.685, 51.251-52.685C 2670.566,402.202, 2691.482,425.293, 2691.482,454.886z M 2628.070,418.56l-10.394,0 L 2618.266,491.136 l 27.878,0 
		c 16.23,0, 23.245-7.066, 23.245-20.070c0-13.082-8.346-18.458-16.512-20.198l 20.147-32.256l-11.136,0 l-19.2,32.256l-13.824,0 L 2628.070,418.56 z M 2639.027,458.931
		c 9.523,0, 20.147-0.973, 20.147,12.211c0,10.394-8.218,11.136-15.821,11.136l-15.77,0 l0-23.885 L 2639.027,458.931 z" horiz-adv-x="2739.2"  />
<glyph unicode="&#x2c;" d="M 309.417,210.161c 94.432,0, 170.694,76.819, 170.694,171.78s-76.262,172.030-170.694,172.030c-94.126,0-170.667-77.069-170.667-172.030
	S 215.263,210.161, 309.417,210.161z M 439.29,178.996L 184.904,178.996 c-86.14,0-148.953-83.97-148.953-152.292l 551.736,0 C 587.687,95.054, 535.717,178.996, 439.29,178.996
	z"  />
<glyph unicode="&#x2d;" d="M 591.115,38.869c0-35.744, -28.992-64.693, -64.693-64.693c -35.776,0, -64.693,28.992, -64.693,64.693
	c0,35.819 28.917,64.736 64.693,64.736C 562.155,103.605, 591.115,74.645, 591.115,38.869M 334.507,38.869c0-35.744, -28.992-64.693, -64.757-64.693c -35.701,0, -64.651,28.992, -64.651,64.693c0,35.819 28.992,64.736 64.651,64.736
	C 305.515,103.605, 334.507,74.645, 334.507,38.869M 184.885,507.819L 682.667,507.819L 609.504,166.645L 194.923,166.645L 136.811,461.323L 85.376,534.805L 0,534.805L 0,601.867L 115.851,601.867 z" horiz-adv-x="725.333"  />
<glyph unicode="&#x4c;" d="M 320-32C 143.28-32,0,111.28,0,288C0,464.72, 143.28,608, 320,608c 176.72,0, 320-143.28, 320-320
	C 640,111.28, 496.72-32, 320-32z M 579.36,314.82c 0.52,0.26, 0.8,0.7, 1,1.4c 0.42-2.22, 1.44-4.18, 3.080-5.62
	c 0.040-0.2-0.060-0.16, 0.040-0.44c 0.16,0, 0.28,0.12, 0.42,0.12C 585.58,308.92, 587.66,308, 590,308c 3.6,0, 6.6,2, 8.36,4.82
	c 0.12-0.14, 0.32-0.32, 0.42-0.48c-0.020,0.32-0.060,0.64-0.1,0.96C 599.46,314.72, 600,316.28, 600,318
	c0,5.52-4.5,10-10,10c-3.52,0-6.44-1.92-8.24-4.64c-0.080,0.060,0,0.3-0.22,0.22
	c 0.26,0.76-0.44,2.7-1.54,4.78L 580,318 C 580,316.86, 579.68,315.84, 579.36,314.82z M 119.84,317.82c0,3.020-6.88,8.16-8.66,8.16
	c0,0.54-2.8,6.7-3.86,6.7c0,2.080-7.3,11.42-8.46,7.34c-0.76-2.64, 5.58-6.2, 5.58-9.26
	c 1.18,0, 6.14-9.4, 7.12-11.040c 10.84-18.32-8.1-5.8-8.1,1.96c-2.42,1.2-6.24,10.42-6.24,12.94
	c-1.42,1.14-5.62,10.040-5.28,10.040c0,5.84-3.22,8.64-9.62,8.64c-0.3,0.58-5.68,8.14-5.78,8.14
	c0,2.4-4.32,9.84-6.72,11.020c0,4.98-2.56,11.12-1.42,16.28c0,5.42-0.28,11.56-2.12,17.12C 49.58,370, 40,330.16, 40,288
	c0-120.82, 76.68-223.48, 183.92-262.74c 0.12,9.92, 0.86,21.8, 3.12,21.8c0,1.48, 1.26,7.68, 2.4,7.68c0,3.8, 0.46,8.38,0,12.94
	c-1.42,2.86, 1.88,6.52, 2.88,11.020c 5.54,2.78, 1.62,30.66, 5.8,30.66c0,13.94, 3.12,22.060, 0.94,34.98
	c 1.060,0-6.3,7.82-6.24,7.68c-7.060,0-12,11.32-12,16.28c-0.68,2.18-2.42,5.44-2.42,8.14
	c 1.62,0-10.1,17.12-10.1,16.78c-6.2,3.44, 0.34,8.24, 0.96,13.88c-5.38,1.78, 0.060,16.3, 2.4,16.3
	c 0.24,1.84, 1.2,3.1, 2.9,3.82c 1.2-4.78, 6.78,2.38, 2.4,2.38c0,3.16-0.36,9.92,0,11.5
	c0,4.88-4.32,14.44-7.68,4.32c-3.6,1.78-12.68,1.46-13.46,7.18c 0.56,2.82-5.18,8.58-7.2,9.58
	c 1.88,4.92-9.74,11.5-13.94,11.5c0,1.060-2.22,0.58-2.88,1.92c-4.28,0-5.26,5.76-10.1,5.76
	c-5.58,0-11.2,3.82-16.34,3.82c-1.72,3.42-9.7,2.080-11.54,5.76c-4.18,0-5.82,7.92-5.94,10.84
	C 127.7,305.38, 124.84,317.82, 119.84,317.82z M 524.96,478.32C 524.92,478.2, 525,478.28, 524.8,477.88c 0.3,0, 0.66-0.34, 1-0.48
	C 525.5,477.7, 525.24,478, 524.96,478.32z M 530.98,471.7c 0.7-1.36, 1.22-2.62, 1.060-3.4c 0.7-0.020, 1.040,0.36, 1.6,0.5
	C 532.78,469.78, 531.84,470.7, 530.98,471.7z M 548.36,380.58c 0.32,8.64-7.2,7.2-9.58,12c-2.48,0-3.38,1.92-6.74,1.92
	c-2.18,0.74-3.9,0.22-5.16-1.56c-5.14-1.96-2.040,2.5-5.9,2.5c 0.18,4.94-1.78,6.3-7.22,5.76
	c-3.12-7.040-7.92-11.26-7.2-19.18c 2.3-0.52, 1.9-1.040, 1.44-3.34c 3.060-0.16, 21.62,0.96, 21.62,2.88
	c 0.64,0, 3.86-6.62, 3.86-0.96c 2.58,0, 3.94-6.060, 10.1-4.3C 543.58,375.060, 553.86,380.58, 548.36,380.58z M 549.34,278.52
	c 0.36,1.76-0.88,2.54-1.92,4.32c 2.74,0-8.66,21.14-8.66,24.44c-1.74,0.86-3.96,6.9-4.36,9.1
	c-2.34,1.56-4.76,6.68-5.76,9.58c-2.38,1.58-8.18,8.66-9.12,11.98c 3.44-0.38, 8.64-1.080, 8.64,3.36
	c-2.32,0-2.66,2.86-0.46,2.86c-0.72,2.94, 1.56,5.060, 2.060,7.36c 0.6,2.78, 1.78,7.060, 1.78,10.38
	c-3.3,0-4.1-0.56-6.72-1.44c0-1.94-5.86,0.48-6.72,0.48c-1.26,2.52-10.4-3.28-12.96,1.92
	c-4.14,3.74-3.020,6.62-4.36,11.9c-0.68,2.68-4.34,2.84-6.56,3.28c-6.26,1.22-1.74-7.46-2.080-9.44
	c 3.84,0-2.42-4.76-2.42-7.18c-6.48,1.4-4.32,8.62-8.14,10.54c-1.14,1.92-0.24,3.36-2.9,3.36
	c0,2.56, 1.36,7.2-1.44,8.14c0,1.24-5.44,1.74-6.24,3.36c-3.44,0-11.44,13-13.9,8.62
	c-1.54-2.8, 1.3-3.48, 1.88-5.76c 4.98,0.98, 4.5-8.2, 10.58-7.18c0-1.28, 0.16-2.58, 0.46-3.84
	c 4.5,1.060, 3.98-3.34, 6.24-3.34c-1.64-2.18-6.84,3.48-5.42-1.28c 0.82-2.76, 0.36-5.12-3.22-7.82
	c0,2.98-0.24,11.020-3.36,11.020c-2.12,4.24-8.42,3.22-11.080,7.18c-2.16,0-3,6.72-6.72,7.18
	c-0.7-0.98-3.32-1.92-4.34-1.92c-2.020-4.060-13.44-0.42-13.44-0.96c-0.18-0.040-6.4-15.24-6.76-17.24
	c-0.7-4.3-4.16-4.38-5.2-8.46c-0.52-2.040-13.060-1.080-13.060-2.58c-5.42,1.8-10.1,5.6-10.1,11.5
	c-0.44,0, 1.020,15.060, 1.94,17.26c 1.1-0.3, 1.32-0.68, 1.94-1.92c 3.32,1.24, 11.060-0.82, 11.060,2.88
	c 3.22-0.080, 4.18-1.36, 2.88-3.84c 3-0.56, 8.18-1.32, 8.18,2.88c-1.76,0-1.94,0.16-1.94,1.92
	c 5.76,5.98-4.32,11.38-4.32,14.36c-2.040,0.68-6.2,5.1-3.24,3.44c 2.5-1.38, 11.64-4.24, 8.040,1.84
	c 0.24,0.080, 0.4,0.24, 0.46,0.46c 1.020-0.72, 5.32-5.14, 5.32-0.96c 1.18,0, 5.74,2.88, 1.92,2.88
	c 0.36,2.16, 0.28,3.96, 0.46,5.28c 6.1-3.28, 2.7,2.24, 5.78,4.3c0-3.98, 3.28,1.92, 5.28,1.92
	c 2.38,3.54, 7.82,0.8, 9.14,4.8c-2.94,0.96-2.4,8.32-2.4,11c 3.54-0.58, 7.48,4.78, 8.020,1.1
	c 0.2-1.42, 0.38-5.34, 1.1-5.88c 5.26-2.76, 3.86,1.58, 3.86,4.3c-1.76,0-4.1,6.16-4.34,9.12
	c-1.44-0.2-3.76-0.8-4.34-1.9c-5.24,0-8.8,1.9-12.96,1.9c-0.32,0.64-5.32,6.24-4.8,6.24
	c-2.92,5.020, 2.92,3.56, 3.84,3.8c0,4.76, 19.82,3.92, 20.68,11.52c-6.52,0, 6.72,11.040, 6.72,11
	c 4.42,3.78, 6.76,7.040, 12.26,7.46c 2.32,0.16, 28.12,7.28, 28.12,4.060c 1.040-0.040, 4.48-0.080, 8.040-0.2
	C 460.32,539.4, 393.58,568, 320,568c-71.26,0-136.12-26.84-185.54-70.7c 0.44-1, 0.78-1.96, 0.76-2.64
	C 137.84,494.84, 141.6,496.52, 142.44,493.2C 141.14,493.22, 139.84,493.38, 138.6,493.7c 0.92-7.42-3.24-2.88-6.72-2.88
	c0,0.18-1.54,0.8-3.18,1.24c-1.060-1-2.18-1.94-3.24-2.94C 125.58,488.8, 125.4,488.78, 125.6,488.42
	c 1.12,0, 0.54-1.74, 3.74-2.8C 133.040,484.36, 137.1,483.66, 141,483.040c 3.16-0.5, 4.98,0.58, 7.68,0.58
	c0,0.4, 6.6,3.34, 1.94,3.34c 0.64,2.64-0.54,3.3-3.38,3.34c 0.24,2.8, 6.9,0.96, 9.62,0.96
	c 2.080,3.5, 0.060,3.080, 1.9,6.26c 2.2,3.9, 4.82,0.52, 6.26,4.26C 167.2,500.98, 169.14,499.8, 169.84,497.040
	C 171.58,495.6, 180.42,482.56, 180.42,491.78C 183.58,490.72, 185.16,484.8, 185.22,481.7c 5.74,0.84, 6.24,5.14, 6.24,9.6
	c 1.32,0-0.48,2.14-0.48,2.88C 193.12,494.96, 195.8,492.14, 195.8,495.12c 0.92,0, 0.96-0.92, 0.96-1.92
	c 2.98-0.58, 4.9,0.34, 6.72-0.3c 1.26-0.44, 0.62-6.98, 0.040-9.28c-0.72-2.92-6.3-2.96-6.3-4.32
	c-6.32-4.72, 7.46-7.18, 9.62-10.060c-1.3,0-6.24,0.64-6.24,0.94c-3.12,0-10.68-3.3-13.46-0.94
	c 3.88,0, 5.18,4.66, 5.78,9.1c-3.58,1.34-7.8-0.86-8.8-4.42C 182.44,468.040, 178.54,474.16, 176.58,470.2
	C 175.82,469.96, 168.88,466.74, 168.88,467.82c-7.8-1.1-5.76-7.72-5.76-14.86C 166.22,451.1, 172.52,445.8, 172.24,442.9
	C 179.24,441.66, 181.8,440.92, 188.1,440.020c 0.52-1.020, 2.6-1.98, 3.86-2.38c0-4.12, 3.74-3.38, 7.2-3.38
	c0,5.26, 6.12-4.38, 6.72-6.22c-0.84,0, 1.44-5.38, 1.92-7.2c-0.96,0.34-1.26,0-0.96-0.96
	c 3.040-1.12, 7.86-0.8, 8.66,2.4c-2.92,0-1.94,3.34-1.94,5.28c-3,2-2.54,5.86, 0.48,6.7
	c0-2.72, 9.9,1.7, 4.32,3.82c 1.36,3.060, 2.28,7.76, 0.060,10.42c-1.42,1.68-3.2,0-3.9,2.52
	c 3.78,0.94, 1,8.14, 0.96,11.5c 1.2,0.46, 4.32-0.76, 4.32,0c 3.7,0, 9.86-4.68, 12.020,0.98
	c 6.18-2.82, 1.26-5.5, 7.7-3.36c0-1.52, 7.26-8.62, 8.18-8.62c0-0.34-0.18-2.4, 1.42-2.4
	c0-1.54-0.96,0.88-0.96-1.9c 0.9-0.1, 5.78-0.98, 5.78,0.94c 3.1,0, 5.28,3.8, 5.28,6.7
	c 1.94,1.26, 5.34-10.54, 7.68-10.54c 1.72-2.68, 7.22-6.58, 7.22-9.1c 1.16-1.18, 2.38-0.86, 2.38-4.32
	c 1.46,0, 4.34,5.74, 4.34,0.48c 1.36,0, 5.32-2.92, 5.78-5.26c-3.46,0-0.18-3.36-1.96-3.36
	c0-3.32-7.42-0.68-9.1-0.48c-2.3-10.3-16.18-2.9-24.58-5.56c-4.42-1.4-12.96-11.14-13.42-16
	c 5.36-0.060, 7.72,4.64, 12.5,6.24c 3.9,0, 4.66,2.36, 8.18,3.34c0-0.98, 0.96-0.46, 0.96-1.44
	c-6.84,0-2.68-4.42-0.68-7.64c 1.24-2, 2.66-2.96, 4.24-3.58c-0.66-1.16-1.2-2.32-1.62-3.62
	c0-0.020-0.020,0-0.020-0.020c-1.3-0.44-3.84-1.38-4.34-2.4c-7.74-0.86-3.92-0.34-3.4,1.52
	c 0.28-0.66, 3.060-0.060, 2.94-0.080c-0.46,2.32-1.16,2-0.48,3.34c-4.2,0-6.24-1.92-9.62-1.92
	c-0.56-1.14-3.5-3.84-4.8-3.84c-0.98-2.96-3.2-8.34-5.78-10.060c0,0.78-6.84-4.3-6.24-4.3
	c-1.52-2.46-3.18-2.38-3.86-6.22c-0.46-0.24-2.4-6.66-2.4-7.66c-2.98-1.98-4.080-10.060-9.14-10.060
	c-3.1-6.16-8.66-5.34-8.66-13.42c 1.88-1.92, 2.6-10.42, 3.18-13.14c 0.72-3.38, 1.84-6.9-2.68-6.98
	c-0.32,0.5-3.48,5.28-2.9,5.28c0,1.98-2.42,8.32-3.84,10.3c-1.9,2.66-5.42-0.42-8.18,0.74
	c-1.18,2.36-9.16,2.88-12,2.88c 0.46-1.78, 1.76-2.34, 1.92-4.32c-2.36-0.96-3.72-2.040-6.16-1.7
	c-4.18,0.58-3.68,3.84-8.28,3.38c-7.36-0.74-12.5-6.84-12.5-14.14c-0.82,0-0.82-14.38,0-14.38
	c0-4.060, 3.36-7, 3.36-10.060c 3.26,0, 6.92-7.18, 10.1-7.18c 0.36-2.54-1.6-2.94, 3.84-2.9
	c0,0.28, 2.96,1.86, 3.36,3.84c-3.76,0.92-0.020,5.76, 2.4,6.7c0-3.42, 4.8,1.14, 4.8,1.44
	c 0.54,0.22, 5.3,1.92, 5.3,1.92c0,3.88, 3.62-0.38, 0.96-1.92c-2.6,0-2.4-4.32-3.84-4.32
	c-0.62-3.080-1.84-5.76-2.56-8.76c-0.92-3.7, 2.080-4.080, 1.12-7.54c 3.82-0.72, 7.68-0.020, 11.54,0
	c 0.020,0.68-0.12,1.34-0.48,1.92c 5.58,0, 0.48-10.54, 3.86-10.54c0-3.98, 1.92-7.080, 1.92-9.58
	c 2.6-1.72, 4.16-4.020, 3.36-7.18c 3.2-0.42, 10.080-1.24, 10.080,2.88c 4.86,0, 5.2-3.3, 4.84-6.7
	c 9.68,0, 3.62,9.58, 7.66,9.58c 0.38,1.58, 1.040,1.86, 1.98,0.82c 1.98-1.060, 3.48,1.98, 5.060,2.94
	c 0.5,0.34, 2.26,1.36, 2.58,1.36c 1.36-0.82, 1.48-0.58, 2.080-1.5c 2.64,0.020, 5.3,1.5, 7.56,3.060
	c 3.46-0.42, 2.34-7.86, 8.82-8.32c 2.6-0.18, 8.62-0.9, 10.86,0.64c 0.56,0.38, 2.62-1.3, 2.84-2.020
	c 2.16,0, 2-1.88, 2.92-1.84c 0.22-0.42, 0.54-0.58, 0.98-0.46c 0.28-0.82, 2-1.060, 2.9-3.34
	c0-2.080, 4.32-2.44, 4.32-3.82c 3.1-1.56-1.060-1.98, 3.7-3.42c 2.62-0.82, 5.040-2.14, 7.86-2.34
	c 0.9,3.42, 3.82-0.46, 5.3-0.46c 0.76-1.56, 1.16-0.38, 1.9-1.92c 4.46-3.72, 1.52-2.28, 3.36-6.24
	c 2.14-1.4, 2.82-6.28, 3.4-9.1c-1.72,0-0.5-6.58-0.5-7.2c-2.080,0, 5.32-3.94, 5.32,0.98
	c 3.040-0.5, 5.040-3.82, 7.2-3.82c-1.26-2.9, 3.36-5.080, 3.36-0.5c 4.56-0.46, 3.34-7.26, 2.9-9.58
	c 3.38,0, 4.36,1.88, 7.24,2.24C 332.58,206.56, 336.060,208, 340,208c 11.060,0, 20-8.94, 20-20c0-9.96-7.42-17.86-16.96-19.38
	c-1.28-1.46-2.44-2.72-2.52-2.72c0-0.96-0.22-10.52-0.5-10.52c0-1.92-1.46-12.46-2.88-12.46
	c0-5.42-3.54-6.4-4.8-11.5c-2.92-2.16-10.82-5.76-12.040-8.14c-2.26,0-3.94-1.92-6.24-1.92
	c-0.32-0.66-5.22-5.28-4.34-5.28c-0.36-3.4, 0.26-11.4-1.58-13.64c-1.24-1.48-3.020-1.32-2.24-3.64
	c-2.7,0, 0.16-1.92-4.1-1.92c-2.68,0-7.46-3.82-7.6-7.060c-0.18-3.96-1.24-6.82-4.64-9.24
	c0-1.36-6.24-1.76-6.24-5.28c 0.58,0,0-6.52,0-7.18c-1.86,0.060-6.42-1.8-7.2-3.34c-6.28,0-5.52-0.64-9.6-3.36
	c0-0.84-0.58-3.82-1.44-3.82c0-4.86-3.46-0.44-6.26-2.9c 1.1,0, 2.5-4.78, 1.92-4.78
	c0-4.22-2.62-4.58-5.28-7.68c-1.26-0.84-2.46-4.32-3.36-4.32c0-2.84-1.42-5.42-1.42-8.14
	c 0.6,0, 0.040-1.22, 0.46-2.36c 1.34,0.38, 1.38,1.9, 1.92,1.9c0,2.4, 3.82-1.42, 1.44-1.42
	c-1.98-3-4.12-3.060-5.3-7.2c-1.2,0-2.24-1.16-3.12-2.52C 269.64,11.76, 294.36,8, 320,8
	c 98.48,0, 184.92,50.96, 234.84,127.86c 0.3,7.080, 1.4,13.84, 2.18,16.18c 1.96-1.44, 3.42-4.14, 4.8,0
	c-3.46,0.68-2.62,1.88-1.44,4.78c 1.32-0.8, 3.98-1.78, 6.14-1.64c 0.66,1.24, 1.18,2.56, 1.84,3.8
	c-1.96,1.52, 0.74,5.46, 1.68,3.54c 0.5,0.96, 0.94,1.96, 1.4,2.92c-0.22,0.060-0.16-0.080-0.48,0.020
	c0,1.74, 0.32,1.52, 1.46,2.4c 0.020-0.18,0-0.18, 0.040-0.34C 589.92,204.060, 600,244.8, 600,288c0,1.42-0.2,2.78-0.22,4.2
	c-0.52-1.96-1.5-4.080-2.88-4.56c0-1.26-14.3-7.48-13.44-10.060c-2.52,0-11.36-2.52-12.98-5.74
	c-1.78,0-8.96-2.54-9.62-3.84C 551.94,267.98, 553.64,278.52, 549.34,278.52z M 590,388l-10.62,0 
	c-0.080,0.1-0.16,0.12-0.24,0.26c-0.54,0-2.8,5.080-1.92,6.24c 0.86,0, 1.26-0.080, 1.72-0.12
	c-0.9,2.2-1.88,4.36-2.86,6.54c-2.16-1.48-4.060-3.36-7.040-3.54c0-0.82-4.26-9.1,0-9.1
	c0-0.16, 0.080-0.28, 0.12-0.42C 564.060,387.38, 560,383.22, 560,378c0-5.52, 4.48-10, 10-10l 3.94,0 
	c 0.24-1.82, 1.22-3.4, 4.72-4.18c 1.1-4.62, 9.34-6.26, 10.58-1.42c-3.48,0-2.34,3.34-2.040,5.6L 590,368 
	c 5.5,0, 10,4.48, 10,10C 600,383.52, 595.5,388, 590,388z M 560.86,257.96c 0.7-0.040, 5.32,0.080, 5.32,0.9
	c 4.18,0, 9.84,0.58, 13.94,1.94c0-6.2-5.22-9.66-4.34-15.82c-3.46,0-1.94-3.56-1.94-4.78
	c-2.24-1.38-2.58-3.9-5.28-5.28c0-2.78-6.24-7.38-8.080-9.76c-2.080-2.66-8.34-7.28-9.16-10.66
	c 0.22,0.8-11.44-12.14-8.72-12.14c0-2.42-3.28-21.56, 0.96-21.56c0-1.68, 3.62-17.74, 1.42-17.74
	c0-5.16-3.36-8.32-3.36-12.44c-1.64-1.12-3.98-1.74-4.8-3.38c-2.94,0-4.36-6.24-5.76-6.24
	c0-6.66-1.94-11.6-1.94-19.16c 0.54,0-3.84-10.78-3.84-11.48c-3.54-2.38-12.5-10.92-12.5-15.36c0,0-6.24-8.76-7.2-10.060
	c-1.88,0-16.36-2.72-16.36-3.84c-3.080,0-11.040-2.42-12.96,0.48c0,3.040-1.66,6.9-1.92,11.040
	c-1.48,0-1.72,6.22-3.36,6.22c0,1.32-9.18,19.66-7.7,19.66c0,1.9-1.64,8.14-1.92,8.14c0,6.6-4.82,12.1-4.82,18.2
	c-1.42,0-4.36,13.4-2.88,13.4c0,7.040, 2.46,11.64, 3.48,19.46c 1.14,8.58-0.54,13.8-2.040,19.86
	c-0.82,0-3.58,4.58-3.86,5.74c-3.86,2.56-5.28,7.64-5.28,12.44c 2.52,2.88, 3.52,13.7, 2.9,17.26
	c-4.86,2.3-6.8,1.44-12.040,1.44c-3.1,6.22-23.92,2.38-29.82,2.38c0-3.4-14.5,0.66-15.86,3.36
	c-3.54,0-10.56,7.52-10.56,11.020c-3.88,2.58-10.080,15.42-10.080,19.64c-3.36,1.68-2.34,8.16-0.5,8.16
	c 0.46,1.8-1.18,7.48-1.96,10.18c-0.58,2.020, 1.96,4.2, 1.96,6.6c0,6.68, 0.16,9.76, 3.9,16.9
	c 1.18,2.24, 2.68,4.34, 3.78,7.14c 2,5.020, 2.6,0.24, 5.3,4.72c 2.58,1.28, 4.080,5.56, 6.74,7.66
	c 1.16,1.54, 1.2,2.18,0,3.36c 0.52,0, 3.36,7.38, 3.36,9.080c 3.76,5.22, 1.1,2.84, 4.8,2.4
	c 1.36,1.48, 3.62,5.28, 5.76,5.28c 0.94,1.86, 3.3,2.88, 5.3,2.88c0-2.88, 7.84,0.94, 8.66,0.94
	c 1.34,2.7, 9.98,5.76, 12.020,5.76c0,3.28, 17.040-0.92, 19.72-0.48c0,0.48,0,0.96,0,1.44c 3.64-0.86, 10.28-15.46, 9.6-18.7
	c 2.8,0, 5.4,0.46, 7.22,0c0-3.1, 5.84-3.86, 8.5-4c 3.7-0.18, 14.56,0.38, 14.56,5.44c 2.86,0, 5.4-2, 4.84-5.26
	c 3.24-0.36, 22.5-0.74, 21.14-4.78c 2.82,0, 3.54-4.82, 6.24-4.82c-0.54-3.32, 3.36-11.98, 6.24-11.98
	c0-2.88, 1.8-8.18, 4.34-10.040c 1.36-4.12, 5.86-12.8, 10.080-15.34c-1.8-3.4, 2.74-6.2, 3.86-9.58
	c-0.26,0, 0.98-5.020, 2.38-5.76c0-3.4, 7.16-17.26, 11.080-17.26C 559.68,259.1, 555.74,258.34, 560.86,257.96z M 457.040,365.26
	c 0.74,2.86, 2.42,0.64, 3.98,0.12c 3.7-1.2, 2.42,0.060, 5.16,1.3C 466.18,358.88, 461.7,364.8, 457.040,365.26z
	 M 446.92,379.64c 1.96,0, 2.5-8.8-2.88-7.18c0,2.18-1.38,6.22, 1.46,6.22C 446.32,375.28, 446.92,376.66, 446.92,379.64z
	 M 444.54,385.38c 2.22-0.96, 3.2-0.64, 2.88,0.96c 2.92-0.96-0.38-3.040-0.96-5.28
	C 444.96,382.54, 445.42,383.060, 444.54,385.38z M 393.080,428.040c-4.72,1.22, 4.86,2.62, 5.28,3.82c-1.6,0-2.7,1.66-2.080,3.060
	c 0.72,1.66, 1.9-1.98, 3.54-1.16c 1.94,0.2, 5.76,3.1, 3.8-2.5c-2-5.68-3.82-9.84-11.020-9.94
	C 390.020,423.92, 392.5,425.28, 393.080,428.040z M 410.88,447.68c 3.88,0, 0.48-2.88-0.38-2.88c 0.66-0.26-0.12-2.58-0.12-3.34
	c 3.6,0.040, 3.66,2.24, 6.24,2.88c-0.54-3.22-4.14-3.84-0.62-6.6c 1.86-1.46, 3.76-3.18, 3.020-5.4
	c 4.58,0, 5.26-4.4, 4.32-9.58c 2.54,0, 2.42-0.12, 2.42,2.42c 2.46-0.68, 2.28-2.9,0-2.9
	c-2.28-4.5-8.26-4.3-12.5-4.3c-0.040,3.48-0.7,3.7-3.92,2.72c-4.4-1.34-0.96,3.5-0.88,5.9
	c 0.48,0, 9.98-0.44, 4.32,1.44c-0.3,5.16-1.46,6.7-6.24,6.7c0,3.52-1.24,3.26-1.82,7.12
	C 403.9,447.56, 409.18,441.46, 410.88,447.68z M 409.42,416.54c0-1.18-2.4-2.12-2.88-0.46c 0.46-0.16, 0.64,0, 0.46,0.46
	C 407.82,416.54, 408.64,416.54, 409.42,416.54z M 370,468l-20,0 C 344.48,468, 340,472.48, 340,478C 340,483.52, 344.48,488, 350,488l 20,0 
	C 375.52,488, 380,483.52, 380,478C 380,472.48, 375.52,468, 370,468z M 253.48,291c 1.12,0, 2.42-0.44, 2.42-1.44
	C 254.44,289.56, 252.56,288.18, 253.48,291z M 235.24,290.020c-0.8-1.52-7.28-1.26-8.18,0.5c 2.4,0, 4.26-0.98, 6.72,0
	c0,1.32-1.1,2.38-1.92,3.82c 2.62,0, 5.56-2, 9.14-1.92c0,2.22-0.98-0.48,0,2.4c 1.5-0.38, 5.12-3.82, 5.28-5.26
	C 241.020,290.12, 240.78,290.020, 235.24,290.020z M 214.080,301.52c-2.46,0-7.2,2.14-8.66,4.32c 2.38-0.1, 4.74-1.080, 6.24,1.44
	c 6.1-0.62, 6.64-4.82, 11.54-4.82c 0.92-1.62, 6.16-5.34, 1.1-5.82C 220.48,296.28, 215.68,298.36, 214.080,301.52z
	 M 217.92,288.1c-1.78,0-4.72-0.78-3.36,2.9C 216.92,290.68, 218.040,289.7, 217.92,288.1z M 221.28,288.58
	c-0.96-0.16-1.92-0.32-2.88-0.48C 218.68,290.32, 220.78,292.8, 221.28,288.58z M 239.060,267.52
	c-0.38-1.34-0.32-1.42-1.9-1.42c 0.16,0.62, 0.3,1.24, 0.46,1.9C 238.12,267.84, 238.58,267.68, 239.060,267.52z
	 M 195.8,307.28c 0.46-0.16, 0.96-0.34, 1.44-0.48c 0.62-2.38, 1.92-1.2, 3.36-0.48C 200.6,303.54, 194.16,302.74, 195.8,307.28z"  />
<glyph unicode="&#xe002;" d="M 149.663,99.801L 489.697,99.801 l0-40.398 L 149.663,59.404 L 149.663,99.801 z M 168.242,303.273l 151.796-151.467l 151.127,151.467l-0.068,58.977L 340.499,231.641L 340.499,574.865 
	l-40.427,0 L 300.073,230.4 L 168.272,362.24L 168.242,303.273z"  />
<glyph unicode="&#xe00b;" d="M 640,486.496c-23.552-10.432-48.864-17.504-75.424-20.672c 27.136,16.224, 47.936,41.984, 57.76,72.672
	c-25.376-15.072-53.504-25.984-83.36-31.872c-24,25.504-58.112,41.44-95.872,41.44c-72.512,0-131.296-58.752-131.296-131.296
	c0-10.272, 1.152-20.32, 3.392-29.92c-109.12,5.44-205.888,57.76-270.656,137.184C 33.248,504.672, 26.752,482.080, 26.752,458.016
	c0-45.536, 23.2-85.728, 58.432-109.28C 63.648,349.44, 43.392,355.328, 25.696,365.184c0-0.576,0-1.12,0-1.696c0-63.584, 45.248-116.672, 105.344-128.736
	c-11.040-3.008-22.624-4.608-34.592-4.608c-8.48,0-16.672,0.832-24.704,2.336c 16.704-52.128, 65.184-90.112, 122.656-91.2
	C 149.44,106.112, 92.8,85.12, 31.296,85.12c-10.592,0-21.056,0.64-31.328,1.824c 58.080-37.248, 127.136-58.976, 201.28-58.976
	c 241.504,0, 373.568,200.096, 373.568,373.6c0,5.696-0.128,11.328-0.384,16.992C 600.128,437.056, 622.368,460.192, 640,486.496z"  />
<glyph unicode="&#xe00c;" d="M0,608L 640,608L 640-32L0-32zM 420.8,181.12c-7.42-3.54-21.62-6.62-32.2-6.9c-31.96-0.86-38.14,22.44-38.42,39.36l0,124.26 l 80.16,0 
	l0,60.42 l-79.86,0 L 350.48,499.96 c0,0-57.52,0-58.48,0s-2.64-0.84-2.88-2.98c-3.42-31.12-17.98-85.74-78.54-107.56l0-51.56 l 40.4,0 l0-130.42 
	c0-44.64, 32.94-108.080, 119.9-106.6c 29.34,0.5, 61.92,12.8, 69.12,23.38L 420.8,181.12z"  />
<glyph unicode="&#xe00a;" d="M 280.352,75.232L 218.752,95.2L 359.68,527.296L 421.28,507.328 	zM 100.736,302.368L 217.952,395.456L 177.376,445.92L 0.512,302.272L 0.512,302.272L 177.376,158.624L 217.952,209.056L 100.608,302.272 	zM 540.288,302.368L 423.072,395.456L 463.616,445.92L 640.512,302.272L 640.512,302.272L 463.616,158.624L 423.072,209.056L 540.416,302.272 	z"  />
<glyph unicode="&#xe00d;" d="M 183.488-32L 149.056,3.072L 435.104,287.104L 149.056,572.928L 183.52,608L 502.016,288.544 z"  />
<glyph unicode="&#xe00e;" d="M 467.552-32L 502.016,3.072L 215.968,287.104L 502.016,572.928L 467.552,608L 149.056,288.544 z"  />
<glyph unicode="&#xe003;" d="M 640-32L0-32 L0,608 l 640,0 L 640-32 z M 475.413,151.44l-137.227,137.227l 137.227,137.227l-18.853,18.853l-137.227-137.227L 182.080,444.773L 163.227,425.92l 137.227-137.227
	L 163.227,151.467l 18.853-18.853l 137.227,137.227l 137.227-137.227L 475.413,151.44z"  />
<glyph unicode="&#xe008;" d="M 480.692,545.447L 380.067,545.447L 122.329,287.287L 380.183,27.609L 480.901,27.595L 222.789,286.653 	z" />
<glyph unicode="&#xe009;" d="M 122.539,545.447L 223.164,545.447L 480.902,287.287L 223.049,27.609L 122.33,27.595L 380.442,286.653 	z" />
<glyph unicode="&#xe006;" d="M 913.32,348M 397.72,38.64L 261.040,38.64L 450.24,227.76L0,227.76L0,338.84L 450.24,338.84L 262.12,528L 397.72,528L 640,285.72 z"  />
<glyph unicode="&#xe004;" d="M0,328L 640,328L 640,248L0,248z"  />
<glyph unicode="&#xe005;" d="M 640,328L 360,328L 360,608L 280,608L 280,328L0,328L0,248L 280,248L 280-32L 360-32L 360,248L 640,248 z"  />
<glyph unicode="&#xe00f;" d="M0,608L 640,608L 640,528L0,528zM0,328L 640,328L 640,248L0,248zM0,48L 640,48L 640-32L0-32z"  />
<glyph unicode="&#x21;" d="M 526.28,313.64c0-79.52-32.48-106.32-106.4-106.32L 283.32,207.32 l-179.24-188.040l 1.28,186.96c0,0-22.52,1.16-25.36,1.32
		c-45.64,0-80,22.48-80,78.4L0,514.040 c0,58.76, 21.24,85.040, 80,85.040l 366.68,0 c 64.6,0, 79.52-26.88, 79.52-85.68L 526.28,313.64L 526.28,313.64zM 571.28,460c0,0,0-199.44,0-226c0-43.040-17.52-66.56-73.040-66.56c-57.64,0-200.8,0-200.8,0
		s 4.4-66.4, 57.6-66.4c 33.28,0, 62.080,0, 62.080,0l 84.68-124.16l 23.52,124.16c0,0-12.44,0.64, 29.6,0.64
		c 47.52,0, 85,28.84, 85,95.72c0,33.28,0,187.36,0,187.36S 637.84,460, 571.28,460z"  />
<glyph unicode="&#x2192;" d="M 480.576,128L 480.544,231.296L 6.4,231.264L 6.4,344.96L 480.576,344.96L 480.544,448L 633.6,288 z"  />
<glyph unicode="&#x25b8;" d="M 192.032,435.2L 192,140.8L 448,288 z"  />
<glyph unicode="&#x68;" d="M 10.313,261.125q-0.625,1.875 -0.625,3.438q0,6.25 7.5,14.063l 256.875,256.563q 10.313,10.313 23.594,10.313t 23.594-10.313l 256.563-256.563q 7.813-7.813 7.813-14.063q0-1.563 -0.625-3.438q-3.125-7.5 -17.813-7.5l-53.125,0 l0-197.188 q0-9.063 -1.094-13.438t-5.469-8.594t-14.063-4.219l-130.625,0 l0,198.438 l-130.625,0 l0-198.438 l-124.688,0 q-12.188,0 -18.281,4.219t-7.031,8.594t-0.938,13.438l0,197.188 l-53.125,0 q-14.688,0 -17.813,7.5z" horiz-adv-x="595" />
<glyph unicode="&#x44;" d="M0,48L 480,48L 480-32L0-32zM 320,248L 320,608L 160,608L 160,248L 80,248L 240,48L 400,248 		z" horiz-adv-x="480"  />
<glyph unicode="&#x20;" horiz-adv-x="320" />
</font>
</defs>
</svg>
